<svg width="82" height="29" viewBox="0 0 82 29" fill="none" xmlns="http://www.w3.org/2000/svg">
<g clip-path="url(#clip0_349_8529)">
<path d="M-0.000422286 13.914C-0.0166207 12.0561 0.322362 10.2123 0.998292 8.48168C1.66599 6.78901 2.66723 5.24788 3.94249 3.94993C5.15035 2.69128 6.60457 1.69494 8.21446 1.02306C10.6556 0.00287732 13.347 -0.259689 15.9393 0.269466C18.5315 0.798622 20.9047 2.09505 22.7507 3.99035C24.0122 5.25909 24.9953 6.77697 25.6372 8.44705C26.3059 10.1914 26.6408 12.0459 26.6243 13.914C26.6344 15.4796 26.4027 17.0374 25.9374 18.5324C25.4891 19.9538 24.7998 21.2875 23.8995 22.4753C22.6647 24.1398 21.0573 25.4921 19.2061 26.424C16.721 27.685 13.8966 28.1149 11.1488 27.6504C8.40104 27.1858 5.87497 25.8514 3.94249 23.8435C2.66772 22.5451 1.66655 21.0041 0.998292 19.3117C0.324099 17.5927 -0.0149006 15.7605 -0.000422286 13.914ZM6.40753 13.914C6.34216 15.9963 7.05187 18.0287 8.39919 19.6177C9.00123 20.333 9.75237 20.908 10.6 21.3025C11.4476 21.6969 12.3713 21.9014 13.3062 21.9014C14.2411 21.9014 15.1647 21.6969 16.0124 21.3025C16.86 20.908 17.6111 20.333 18.2132 19.6177C19.5003 17.9874 20.2005 15.9709 20.2005 13.8938C20.2005 11.8167 19.5003 9.80018 18.2132 8.16995C17.6123 7.45288 16.8615 6.87623 16.0137 6.48057C15.1659 6.08491 14.2417 5.87987 13.3062 5.87987C12.3706 5.87987 11.4464 6.08491 10.5986 6.48057C9.75086 6.87623 9.0001 7.45288 8.39919 8.16995C7.05154 9.77355 6.34788 11.8207 6.42485 13.914H6.40753Z" fill="#C72035"/>
<path d="M27.8198 27.8198V0.00585938H36.4099C39.6504 0.00585938 42.0962 0.596623 43.7473 1.77815C45.3983 2.95968 46.2258 4.71657 46.2296 7.04884C46.2629 8.34913 45.8561 9.62255 45.0751 10.6627C44.1852 11.7464 43 12.5485 41.6632 12.9719C43.22 13.2842 44.6221 14.1219 45.635 15.3445C46.6112 16.5924 47.1197 18.1426 47.0725 19.7262C47.0725 22.3971 46.0834 24.4138 44.1052 25.7762C42.127 27.1386 39.2021 27.8198 35.3304 27.8198H27.8198ZM33.8583 10.9975H36.0635C37.1503 11.063 38.2276 10.7621 39.1232 10.1431C39.4879 9.86092 39.7788 9.49447 39.9708 9.0752C40.1628 8.65592 40.2503 8.19633 40.2258 7.73581C40.265 7.29354 40.1894 6.84863 40.0064 6.44411C39.8233 6.03958 39.539 5.68913 39.1809 5.42664C38.4824 4.94172 37.3971 4.69348 35.9134 4.69348H33.8583V10.9975ZM33.8583 22.7916H36.6235C37.7521 22.857 38.866 22.5103 39.7582 21.816C40.141 21.4849 40.4438 21.0713 40.6438 20.6064C40.8438 20.1414 40.9357 19.6372 40.9128 19.1316C40.9394 18.6446 40.8526 18.158 40.6592 17.7103C40.4659 17.2625 40.1713 16.8657 39.7986 16.5511C38.8814 15.89 37.7633 15.5677 36.635 15.639H33.8698L33.8583 22.7916Z" fill="#C72035"/>
<path d="M61.043 17.1343C62.8157 17.1343 64.2527 15.6973 64.2527 13.9246C64.2527 12.1519 62.8157 10.7148 61.043 10.7148C59.2703 10.7148 57.8333 12.1519 57.8333 13.9246C57.8333 15.6973 59.2703 17.1343 61.043 17.1343Z" fill="#939598"/>
<path d="M80.3188 5.7207C79.5595 3.7535 78.498 1.9168 77.1726 0.276824C77.1038 0.191674 77.0177 0.122194 76.92 0.0730415C76.8222 0.0238888 76.7151 -0.00380231 76.6057 -0.00817555C76.4964 -0.0125488 76.3874 0.00649783 76.286 0.0476854C76.1847 0.088873 76.0933 0.15125 76.018 0.23064L73.1257 3.14597C72.991 3.27875 72.9105 3.45689 72.8998 3.64574C72.8891 3.8346 72.9491 4.02067 73.068 4.16778C73.9193 5.26368 74.6112 6.47453 75.1232 7.76432C76.4763 11.3905 76.594 15.362 75.458 19.0619C74.9553 20.6873 74.174 22.2129 73.1488 23.5706C72.993 23.7727 72.8371 23.9747 72.6697 24.1479L76.0699 27.5424C76.1473 27.6196 76.2401 27.6795 76.3423 27.7183C76.4445 27.757 76.5537 27.7736 76.6628 27.7671C76.7719 27.7605 76.8783 27.731 76.9752 27.6803C77.072 27.6296 77.157 27.559 77.2245 27.4731L77.6229 26.9651C79.0365 25.094 80.1201 22.9952 80.8268 20.7592C81.5221 18.53 81.8707 16.2072 81.8602 13.8721C81.8548 11.083 81.3322 8.31915 80.3188 5.7207Z" fill="#939598"/>
<path d="M71.3303 4.94727L66.839 9.43283C67.5652 10.8165 67.9446 12.3558 67.9446 13.9184C67.9446 15.481 67.5652 17.0203 66.839 18.404L71.3072 22.8722C71.4169 22.7394 71.5382 22.6182 71.6421 22.4797C72.5418 21.2903 73.2292 19.9544 73.6741 18.531C74.6858 15.2327 74.5864 11.6935 73.3913 8.45721C72.8941 7.18564 72.1985 6.00095 71.3303 4.94727Z" fill="#939598"/>
<path d="M61.043 21.908C60.104 21.9175 59.1749 21.7147 58.3252 21.3149C57.4756 20.915 56.7272 20.3284 56.136 19.5988C54.8502 17.9691 54.151 15.9537 54.151 13.8779C54.151 11.802 54.8502 9.78664 56.136 8.15689C56.7275 7.42761 57.4759 6.84122 58.3255 6.4414C59.1751 6.04158 60.104 5.83865 61.043 5.84771C61.9235 5.83554 62.7965 6.01215 63.6031 6.36566C64.4097 6.71916 65.1312 7.24136 65.719 7.89711L70.0545 3.56163C68.9148 2.48279 67.5911 1.61667 66.1462 1.00422C64.5321 0.320069 62.796 -0.0295081 61.043 -0.0233577C59.2931 -0.0278109 57.5599 0.317635 55.9455 0.992675C54.3356 1.66456 52.8814 2.66089 51.6735 3.91955C50.3982 5.2175 49.397 6.75863 48.7293 8.45131C47.3979 11.9445 47.3979 15.8054 48.7293 19.2986C49.4003 20.9828 50.4013 22.5157 51.6735 23.8073C52.8905 25.073 54.3517 26.0785 55.9686 26.763C57.7148 27.4991 59.6002 27.8467 61.4941 27.7819C63.388 27.7171 65.2453 27.2414 66.9371 26.3878C68.07 25.8062 69.114 25.0655 70.0372 24.1883L65.7017 19.8586C65.1151 20.5113 64.3963 21.0316 63.593 21.3849C62.7897 21.7383 61.9205 21.9166 61.043 21.908Z" fill="#C72035"/>
</g>
<defs>
<clipPath id="clip0_349_8529">
<rect width="82" height="29" fill="white"/>
</clipPath>
</defs>
</svg>
